<svg xmlns="http://www.w3.org/2000/svg" xmlns:xlink="http://www.w3.org/1999/xlink" width="268" zoomAndPan="magnify" viewBox="0 0 200.87999 48.75" height="65" preserveAspectRatio="xMidYMid meet" version="1.0"><defs><g/><clipPath id="b8fb541713"><path d="M 0.453125 0 L 48.953125 0 L 48.953125 48.5 L 0.453125 48.5 Z M 0.453125 0 " clip-rule="nonzero"/></clipPath><clipPath id="ddf64461f1"><path d="M 168.445312 36.894531 L 200.308594 36.894531 L 200.308594 48.246094 L 168.445312 48.246094 Z M 168.445312 36.894531 " clip-rule="nonzero"/></clipPath><clipPath id="a8aad0a533"><path d="M 171.0625 36.894531 L 197.703125 36.894531 C 199.148438 36.894531 200.320312 38.066406 200.320312 39.515625 L 200.320312 45.628906 C 200.320312 47.074219 199.148438 48.246094 197.703125 48.246094 L 171.0625 48.246094 C 169.617188 48.246094 168.445312 47.074219 168.445312 45.628906 L 168.445312 39.515625 C 168.445312 38.066406 169.617188 36.894531 171.0625 36.894531 Z M 171.0625 36.894531 " clip-rule="nonzero"/></clipPath></defs><g fill="#442a00" fill-opacity="1"><g transform="translate(53.066379, 34.385686)"><g><path d="M 0.4375 -21.25 C 0.4375 -21.71875 0.578125 -22.023438 0.859375 -22.171875 C 1.140625 -22.316406 1.488281 -22.390625 1.90625 -22.390625 C 2.375 -22.390625 2.882812 -22.34375 3.4375 -22.25 C 4 -22.164062 4.546875 -22.125 5.078125 -22.125 C 6.023438 -22.125 6.988281 -22.160156 7.96875 -22.234375 C 8.957031 -22.304688 10.023438 -22.34375 11.171875 -22.34375 C 12.296875 -22.34375 13.382812 -22.269531 14.4375 -22.125 C 15.5 -21.976562 16.445312 -21.691406 17.28125 -21.265625 C 18.125 -20.835938 18.796875 -20.203125 19.296875 -19.359375 C 19.796875 -18.523438 20.046875 -17.414062 20.046875 -16.03125 C 20.046875 -14.59375 19.660156 -13.410156 18.890625 -12.484375 C 18.128906 -11.554688 17.148438 -10.84375 15.953125 -10.34375 C 16.296875 -10.34375 16.648438 -10.101562 17.015625 -9.625 C 17.390625 -9.15625 17.757812 -8.550781 18.125 -7.8125 C 18.5 -7.082031 18.863281 -6.3125 19.21875 -5.5 C 19.570312 -4.6875 19.910156 -3.941406 20.234375 -3.265625 C 20.492188 -2.734375 20.765625 -2.347656 21.046875 -2.109375 C 21.328125 -1.878906 21.566406 -1.691406 21.765625 -1.546875 C 21.972656 -1.398438 22.078125 -1.148438 22.078125 -0.796875 C 22.078125 -0.378906 21.972656 -0.0976562 21.765625 0.046875 C 21.566406 0.191406 21.304688 0.265625 20.984375 0.265625 C 20.597656 0.265625 20.15625 0.21875 19.65625 0.125 C 19.15625 0.0390625 18.609375 0 18.015625 0 C 17.722656 0 17.175781 0.0390625 16.375 0.125 C 15.582031 0.21875 14.894531 0.265625 14.3125 0.265625 C 13.695312 0.265625 13.253906 -0.0507812 12.984375 -0.6875 C 12.722656 -1.320312 12.539062 -2.109375 12.4375 -3.046875 C 12.332031 -3.992188 12.210938 -4.941406 12.078125 -5.890625 C 11.941406 -6.847656 11.726562 -7.644531 11.4375 -8.28125 C 11.144531 -8.914062 10.660156 -9.234375 9.984375 -9.234375 C 9.242188 -9.234375 8.875 -8.863281 8.875 -8.125 L 8.875 -5.703125 C 8.875 -4.671875 8.945312 -3.890625 9.09375 -3.359375 C 9.238281 -2.828125 9.414062 -2.4375 9.625 -2.1875 C 9.832031 -1.9375 10.007812 -1.726562 10.15625 -1.5625 C 10.300781 -1.40625 10.375 -1.164062 10.375 -0.84375 C 10.375 -0.394531 10.203125 -0.0976562 9.859375 0.046875 C 9.523438 0.191406 9.109375 0.265625 8.609375 0.265625 C 8.109375 0.265625 7.5625 0.21875 6.96875 0.125 C 6.382812 0.0390625 5.890625 0 5.484375 0 C 5.035156 0 4.507812 0.0390625 3.90625 0.125 C 3.300781 0.21875 2.734375 0.265625 2.203125 0.265625 C 1.703125 0.265625 1.28125 0.191406 0.9375 0.046875 C 0.601562 -0.0976562 0.4375 -0.394531 0.4375 -0.84375 C 0.4375 -1.164062 0.507812 -1.40625 0.65625 -1.5625 C 0.8125 -1.726562 0.988281 -1.9375 1.1875 -2.1875 C 1.394531 -2.4375 1.570312 -2.828125 1.71875 -3.359375 C 1.863281 -3.890625 1.9375 -4.671875 1.9375 -5.703125 L 1.9375 -16.390625 C 1.9375 -17.421875 1.863281 -18.203125 1.71875 -18.734375 C 1.570312 -19.265625 1.394531 -19.65625 1.1875 -19.90625 C 0.988281 -20.15625 0.8125 -20.359375 0.65625 -20.515625 C 0.507812 -20.679688 0.4375 -20.925781 0.4375 -21.25 Z M 8.828125 -13.078125 C 8.828125 -12.722656 8.9375 -12.472656 9.15625 -12.328125 C 9.382812 -12.179688 9.644531 -12.109375 9.9375 -12.109375 C 10.851562 -12.109375 11.585938 -12.453125 12.140625 -13.140625 C 12.703125 -13.828125 12.984375 -14.765625 12.984375 -15.953125 C 12.984375 -18.453125 11.96875 -19.703125 9.9375 -19.703125 C 9.644531 -19.703125 9.382812 -19.617188 9.15625 -19.453125 C 8.9375 -19.296875 8.828125 -19.039062 8.828125 -18.6875 Z M 8.828125 -13.078125 "/></g></g></g><g fill="#442a00" fill-opacity="1"><g transform="translate(76.165048, 34.385686)"><g><path d="M 10.640625 0.265625 C 9.078125 0.265625 7.546875 -0.0390625 6.046875 -0.65625 C 4.546875 -1.28125 3.3125 -2.253906 2.34375 -3.578125 C 1.375 -4.898438 0.890625 -6.640625 0.890625 -8.796875 C 0.890625 -10.617188 1.285156 -12.210938 2.078125 -13.578125 C 2.867188 -14.953125 3.972656 -16.019531 5.390625 -16.78125 C 6.804688 -17.550781 8.441406 -17.9375 10.296875 -17.9375 C 12.117188 -17.9375 13.601562 -17.710938 14.75 -17.265625 C 15.894531 -16.828125 16.785156 -16.257812 17.421875 -15.5625 C 18.054688 -14.875 18.488281 -14.171875 18.71875 -13.453125 C 18.957031 -12.734375 19.078125 -12.109375 19.078125 -11.578125 C 19.078125 -10.097656 18.617188 -8.894531 17.703125 -7.96875 C 16.796875 -7.039062 15.632812 -6.363281 14.21875 -5.9375 C 12.8125 -5.507812 11.367188 -5.296875 9.890625 -5.296875 C 9.484375 -5.296875 9.179688 -5.148438 8.984375 -4.859375 C 8.796875 -4.566406 8.738281 -4.226562 8.8125 -3.84375 C 8.882812 -3.457031 9.117188 -3.117188 9.515625 -2.828125 C 9.910156 -2.535156 10.476562 -2.390625 11.21875 -2.390625 C 12.28125 -2.390625 13.117188 -2.578125 13.734375 -2.953125 C 14.359375 -3.335938 14.851562 -3.78125 15.21875 -4.28125 C 15.582031 -4.78125 15.929688 -5.222656 16.265625 -5.609375 C 16.609375 -5.992188 17.0625 -6.1875 17.625 -6.1875 C 18.125 -6.1875 18.5 -6.03125 18.75 -5.71875 C 19 -5.40625 19.125 -5.0625 19.125 -4.6875 C 19.125 -3.6875 18.734375 -2.816406 17.953125 -2.078125 C 17.171875 -1.335938 16.128906 -0.757812 14.828125 -0.34375 C 13.535156 0.0625 12.140625 0.265625 10.640625 0.265625 Z M 10.296875 -15.6875 C 9.671875 -15.6875 9.175781 -15.316406 8.8125 -14.578125 C 8.445312 -13.835938 8.265625 -12.847656 8.265625 -11.609375 C 8.265625 -10.378906 8.445312 -9.394531 8.8125 -8.65625 C 9.175781 -7.914062 9.671875 -7.546875 10.296875 -7.546875 C 10.910156 -7.546875 11.398438 -7.914062 11.765625 -8.65625 C 12.140625 -9.394531 12.328125 -10.378906 12.328125 -11.609375 C 12.328125 -12.847656 12.140625 -13.835938 11.765625 -14.578125 C 11.398438 -15.316406 10.910156 -15.6875 10.296875 -15.6875 Z M 10.296875 -15.6875 "/></g></g></g><g fill="#442a00" fill-opacity="1"><g transform="translate(96.525442, 34.385686)"><g><path d="M 0.890625 -8.796875 C 0.890625 -11.523438 1.753906 -13.726562 3.484375 -15.40625 C 5.222656 -17.09375 7.65625 -17.9375 10.78125 -17.9375 C 13.488281 -17.9375 15.539062 -17.332031 16.9375 -16.125 C 18.332031 -14.914062 19.03125 -13.398438 19.03125 -11.578125 C 19.03125 -10.578125 18.675781 -9.675781 17.96875 -8.875 C 17.269531 -8.082031 16.300781 -7.6875 15.0625 -7.6875 C 14.0625 -7.6875 13.234375 -8.03125 12.578125 -8.71875 C 11.929688 -9.414062 11.609375 -10.175781 11.609375 -11 C 11.609375 -11.96875 11.675781 -12.796875 11.8125 -13.484375 C 11.945312 -14.179688 12 -14.722656 11.96875 -15.109375 C 11.9375 -15.492188 11.6875 -15.6875 11.21875 -15.6875 C 10.476562 -15.6875 9.847656 -15.070312 9.328125 -13.84375 C 8.816406 -12.625 8.578125 -10.96875 8.609375 -8.875 C 8.640625 -6.90625 8.984375 -5.320312 9.640625 -4.125 C 10.304688 -2.9375 11.289062 -2.359375 12.59375 -2.390625 C 13.476562 -2.390625 14.140625 -2.578125 14.578125 -2.953125 C 15.015625 -3.335938 15.359375 -3.78125 15.609375 -4.28125 C 15.859375 -4.78125 16.113281 -5.222656 16.375 -5.609375 C 16.644531 -5.992188 17.0625 -6.1875 17.625 -6.1875 C 18.125 -6.1875 18.5 -6.03125 18.75 -5.71875 C 19 -5.40625 19.125 -5.0625 19.125 -4.6875 C 19.125 -3.6875 18.734375 -2.816406 17.953125 -2.078125 C 17.171875 -1.335938 16.128906 -0.757812 14.828125 -0.34375 C 13.535156 0.0625 12.140625 0.265625 10.640625 0.265625 C 9.078125 0.265625 7.546875 -0.0351562 6.046875 -0.640625 C 4.546875 -1.242188 3.3125 -2.210938 2.34375 -3.546875 C 1.375 -4.890625 0.890625 -6.640625 0.890625 -8.796875 Z M 0.890625 -8.796875 "/></g></g></g><g fill="#442a00" fill-opacity="1"><g transform="translate(116.885834, 34.385686)"><g><path d="M 10.640625 0.265625 C 9.078125 0.265625 7.546875 -0.0390625 6.046875 -0.65625 C 4.546875 -1.28125 3.3125 -2.253906 2.34375 -3.578125 C 1.375 -4.898438 0.890625 -6.640625 0.890625 -8.796875 C 0.890625 -10.617188 1.285156 -12.210938 2.078125 -13.578125 C 2.867188 -14.953125 3.972656 -16.019531 5.390625 -16.78125 C 6.804688 -17.550781 8.441406 -17.9375 10.296875 -17.9375 C 12.117188 -17.9375 13.601562 -17.710938 14.75 -17.265625 C 15.894531 -16.828125 16.785156 -16.257812 17.421875 -15.5625 C 18.054688 -14.875 18.488281 -14.171875 18.71875 -13.453125 C 18.957031 -12.734375 19.078125 -12.109375 19.078125 -11.578125 C 19.078125 -10.097656 18.617188 -8.894531 17.703125 -7.96875 C 16.796875 -7.039062 15.632812 -6.363281 14.21875 -5.9375 C 12.8125 -5.507812 11.367188 -5.296875 9.890625 -5.296875 C 9.484375 -5.296875 9.179688 -5.148438 8.984375 -4.859375 C 8.796875 -4.566406 8.738281 -4.226562 8.8125 -3.84375 C 8.882812 -3.457031 9.117188 -3.117188 9.515625 -2.828125 C 9.910156 -2.535156 10.476562 -2.390625 11.21875 -2.390625 C 12.28125 -2.390625 13.117188 -2.578125 13.734375 -2.953125 C 14.359375 -3.335938 14.851562 -3.78125 15.21875 -4.28125 C 15.582031 -4.78125 15.929688 -5.222656 16.265625 -5.609375 C 16.609375 -5.992188 17.0625 -6.1875 17.625 -6.1875 C 18.125 -6.1875 18.5 -6.03125 18.75 -5.71875 C 19 -5.40625 19.125 -5.0625 19.125 -4.6875 C 19.125 -3.6875 18.734375 -2.816406 17.953125 -2.078125 C 17.171875 -1.335938 16.128906 -0.757812 14.828125 -0.34375 C 13.535156 0.0625 12.140625 0.265625 10.640625 0.265625 Z M 10.296875 -15.6875 C 9.671875 -15.6875 9.175781 -15.316406 8.8125 -14.578125 C 8.445312 -13.835938 8.265625 -12.847656 8.265625 -11.609375 C 8.265625 -10.378906 8.445312 -9.394531 8.8125 -8.65625 C 9.175781 -7.914062 9.671875 -7.546875 10.296875 -7.546875 C 10.910156 -7.546875 11.398438 -7.914062 11.765625 -8.65625 C 12.140625 -9.394531 12.328125 -10.378906 12.328125 -11.609375 C 12.328125 -12.847656 12.140625 -13.835938 11.765625 -14.578125 C 11.398438 -15.316406 10.910156 -15.6875 10.296875 -15.6875 Z M 10.296875 -15.6875 "/></g></g></g><g fill="#442a00" fill-opacity="1"><g transform="translate(137.246225, 34.385686)"><g><path d="M 5.609375 0 C 5.171875 0 4.648438 0.0390625 4.046875 0.125 C 3.441406 0.21875 2.875 0.265625 2.34375 0.265625 C 1.84375 0.265625 1.421875 0.191406 1.078125 0.046875 C 0.742188 -0.0976562 0.578125 -0.394531 0.578125 -0.84375 C 0.578125 -1.164062 0.648438 -1.40625 0.796875 -1.5625 C 0.941406 -1.726562 1.117188 -1.9375 1.328125 -2.1875 C 1.535156 -2.4375 1.710938 -2.828125 1.859375 -3.359375 C 2.003906 -3.890625 2.078125 -4.671875 2.078125 -5.703125 C 2.078125 -7.054688 2.082031 -8.035156 2.09375 -8.640625 C 2.113281 -9.242188 2.125 -9.679688 2.125 -9.953125 C 2.125 -10.234375 2.125 -10.550781 2.125 -10.90625 C 2.125 -11.707031 2 -12.257812 1.75 -12.5625 C 1.5 -12.875 1.25 -13.117188 1 -13.296875 C 0.75 -13.472656 0.625 -13.753906 0.625 -14.140625 C 0.625 -14.578125 0.769531 -14.875 1.0625 -15.03125 C 1.351562 -15.195312 1.769531 -15.335938 2.3125 -15.453125 C 2.863281 -15.578125 3.519531 -15.769531 4.28125 -16.03125 C 5.226562 -16.382812 5.878906 -16.703125 6.234375 -16.984375 C 6.585938 -17.265625 6.847656 -17.492188 7.015625 -17.671875 C 7.191406 -17.847656 7.472656 -17.9375 7.859375 -17.9375 C 8.390625 -17.9375 8.742188 -17.695312 8.921875 -17.21875 C 9.097656 -16.75 9.1875 -16.191406 9.1875 -15.546875 L 9.1875 -5.703125 C 9.1875 -4.671875 9.257812 -3.890625 9.40625 -3.359375 C 9.550781 -2.828125 9.726562 -2.4375 9.9375 -2.1875 C 10.144531 -1.9375 10.320312 -1.726562 10.46875 -1.5625 C 10.613281 -1.40625 10.6875 -1.164062 10.6875 -0.84375 C 10.6875 -0.394531 10.515625 -0.0976562 10.171875 0.046875 C 9.835938 0.191406 9.421875 0.265625 8.921875 0.265625 C 8.359375 0.265625 7.773438 0.21875 7.171875 0.125 C 6.566406 0.0390625 6.046875 0 5.609375 0 Z M 0.578125 -19.171875 C 0.273438 -20.054688 0.425781 -21.015625 1.03125 -22.046875 C 1.632812 -23.078125 2.554688 -23.914062 3.796875 -24.5625 C 4.828125 -25.09375 5.769531 -25.359375 6.625 -25.359375 C 7.914062 -25.359375 8.753906 -24.828125 9.140625 -23.765625 C 9.460938 -22.847656 9.320312 -21.890625 8.71875 -20.890625 C 8.113281 -19.890625 7.195312 -19.050781 5.96875 -18.375 C 4.90625 -17.84375 3.945312 -17.578125 3.09375 -17.578125 C 1.820312 -17.578125 0.984375 -18.109375 0.578125 -19.171875 Z M 0.578125 -19.171875 "/></g></g></g><g fill="#442a00" fill-opacity="1"><g transform="translate(148.685157, 34.385686)"><g><path d="M 0.4375 -16.609375 C 0.4375 -17.046875 0.582031 -17.335938 0.875 -17.484375 C 1.175781 -17.640625 1.59375 -17.789062 2.125 -17.9375 C 2.65625 -18.082031 3.269531 -18.375 3.96875 -18.8125 C 4.914062 -19.40625 5.59375 -19.972656 6 -20.515625 C 6.414062 -21.054688 6.738281 -21.492188 6.96875 -21.828125 C 7.207031 -22.171875 7.519531 -22.34375 7.90625 -22.34375 C 8.4375 -22.34375 8.753906 -22.078125 8.859375 -21.546875 C 8.960938 -21.023438 9.015625 -20.4375 9.015625 -19.78125 L 9.015625 -18.15625 C 9.015625 -17.832031 9.175781 -17.671875 9.5 -17.671875 L 10.203125 -17.671875 C 10.941406 -17.671875 11.3125 -17.300781 11.3125 -16.5625 C 11.3125 -15.800781 10.941406 -15.421875 10.203125 -15.421875 L 9.5 -15.421875 C 9.175781 -15.421875 9.015625 -15.257812 9.015625 -14.9375 L 9.015625 -9.765625 C 9.015625 -7.878906 9.035156 -6.507812 9.078125 -5.65625 C 9.117188 -4.800781 9.347656 -4.164062 9.765625 -3.75 C 10.023438 -3.519531 10.242188 -3.375 10.421875 -3.3125 C 10.597656 -3.25 10.726562 -3.171875 10.8125 -3.078125 C 10.90625 -2.992188 10.953125 -2.789062 10.953125 -2.46875 C 10.953125 -1.914062 10.632812 -1.320312 10 -0.6875 C 9.375 -0.0507812 8.265625 0.265625 6.671875 0.265625 C 4.816406 0.265625 3.554688 -0.398438 2.890625 -1.734375 C 2.234375 -3.078125 1.90625 -4.828125 1.90625 -6.984375 L 1.9375 -13.390625 C 1.9375 -14.179688 1.8125 -14.726562 1.5625 -15.03125 C 1.3125 -15.34375 1.0625 -15.585938 0.8125 -15.765625 C 0.5625 -15.941406 0.4375 -16.222656 0.4375 -16.609375 Z M 0.4375 -16.609375 "/></g></g></g><g fill="#442a00" fill-opacity="1"><g transform="translate(160.565742, 34.385686)"><g><path d="M 5.75 0.265625 C 4.09375 0.265625 2.867188 -0.21875 2.078125 -1.1875 C 1.285156 -2.164062 0.890625 -3.332031 0.890625 -4.6875 C 0.890625 -6.65625 1.625 -8.207031 3.09375 -9.34375 C 4.5625 -10.476562 6.472656 -11.296875 8.828125 -11.796875 C 11.066406 -12.265625 12.1875 -13 12.1875 -14 C 12.1875 -14.382812 12.023438 -14.757812 11.703125 -15.125 C 11.378906 -15.5 10.820312 -15.6875 10.03125 -15.6875 C 9.226562 -15.6875 8.578125 -15.472656 8.078125 -15.046875 C 7.578125 -14.617188 7.132812 -14.128906 6.75 -13.578125 C 6.375 -13.035156 5.957031 -12.550781 5.5 -12.125 C 5.039062 -11.695312 4.429688 -11.484375 3.671875 -11.484375 C 3.171875 -11.484375 2.734375 -11.660156 2.359375 -12.015625 C 1.992188 -12.367188 1.8125 -12.796875 1.8125 -13.296875 C 1.8125 -14.296875 2.207031 -15.140625 3 -15.828125 C 3.800781 -16.523438 4.84375 -17.050781 6.125 -17.40625 C 7.40625 -17.757812 8.796875 -17.9375 10.296875 -17.9375 C 11.910156 -17.9375 13.378906 -17.675781 14.703125 -17.15625 C 16.035156 -16.644531 17.097656 -15.785156 17.890625 -14.578125 C 18.679688 -13.367188 19.078125 -11.71875 19.078125 -9.625 L 19.078125 -5.703125 C 19.078125 -4.671875 19.148438 -3.890625 19.296875 -3.359375 C 19.453125 -2.828125 19.628906 -2.4375 19.828125 -2.1875 C 20.035156 -1.9375 20.210938 -1.726562 20.359375 -1.5625 C 20.503906 -1.40625 20.578125 -1.164062 20.578125 -0.84375 C 20.578125 -0.394531 20.441406 -0.0976562 20.171875 0.046875 C 19.910156 0.191406 19.578125 0.265625 19.171875 0.265625 C 18.734375 0.265625 18.25 0.21875 17.71875 0.125 C 17.1875 0.0390625 16.695312 0 16.25 0 C 15.78125 0 15.367188 0.0195312 15.015625 0.0625 C 14.660156 0.101562 14.296875 0.15625 13.921875 0.21875 C 13.441406 0.28125 13.019531 0.222656 12.65625 0.046875 C 12.289062 -0.128906 12.078125 -0.453125 12.015625 -0.921875 C 11.984375 -1.398438 11.90625 -1.71875 11.78125 -1.875 C 11.664062 -2.039062 11.523438 -2.125 11.359375 -2.125 C 11.023438 -2.125 10.597656 -1.921875 10.078125 -1.515625 C 9.566406 -1.117188 8.953125 -0.722656 8.234375 -0.328125 C 7.515625 0.0664062 6.6875 0.265625 5.75 0.265625 Z M 7.734375 -6.5 C 7.734375 -5.644531 7.945312 -5.03125 8.375 -4.65625 C 8.800781 -4.289062 9.304688 -4.109375 9.890625 -4.109375 C 10.628906 -4.109375 11.1875 -4.421875 11.5625 -5.046875 C 11.945312 -5.679688 12.140625 -6.425781 12.140625 -7.28125 L 12.140625 -9.40625 C 12.140625 -10.195312 11.773438 -10.40625 11.046875 -10.03125 C 10.578125 -9.789062 10.082031 -9.53125 9.5625 -9.25 C 9.050781 -8.96875 8.617188 -8.617188 8.265625 -8.203125 C 7.910156 -7.796875 7.734375 -7.226562 7.734375 -6.5 Z M 7.734375 -6.5 "/></g></g></g><g fill="#442a00" fill-opacity="1"><g transform="translate(181.941948, 34.385686)"><g><path d="M 0.890625 -4.234375 C 0.890625 -4.828125 1.054688 -5.300781 1.390625 -5.65625 C 1.734375 -6.007812 2.226562 -6.1875 2.875 -6.1875 C 3.425781 -6.1875 3.878906 -5.976562 4.234375 -5.5625 C 4.585938 -5.15625 4.957031 -4.6875 5.34375 -4.15625 C 5.726562 -3.625 6.210938 -3.148438 6.796875 -2.734375 C 7.390625 -2.328125 8.1875 -2.125 9.1875 -2.125 C 9.957031 -2.125 10.5625 -2.203125 11 -2.359375 C 11.4375 -2.523438 11.65625 -2.898438 11.65625 -3.484375 C 11.65625 -3.960938 11.394531 -4.347656 10.875 -4.640625 C 10.363281 -4.929688 9.710938 -5.203125 8.921875 -5.453125 C 8.128906 -5.703125 7.28125 -5.984375 6.375 -6.296875 C 5.476562 -6.609375 4.632812 -7 3.84375 -7.46875 C 3.050781 -7.9375 2.394531 -8.546875 1.875 -9.296875 C 1.363281 -10.046875 1.109375 -10.992188 1.109375 -12.140625 C 1.109375 -13.441406 1.398438 -14.484375 1.984375 -15.265625 C 2.578125 -16.046875 3.3125 -16.625 4.1875 -17 C 5.070312 -17.382812 5.945312 -17.632812 6.8125 -17.75 C 7.6875 -17.875 8.40625 -17.9375 8.96875 -17.9375 C 10.46875 -17.9375 11.863281 -17.757812 13.15625 -17.40625 C 14.457031 -17.050781 15.503906 -16.523438 16.296875 -15.828125 C 17.085938 -15.140625 17.484375 -14.296875 17.484375 -13.296875 C 17.484375 -12.796875 17.300781 -12.367188 16.9375 -12.015625 C 16.570312 -11.660156 16.140625 -11.484375 15.640625 -11.484375 C 14.867188 -11.484375 14.25 -11.695312 13.78125 -12.125 C 13.3125 -12.550781 12.882812 -13.035156 12.5 -13.578125 C 12.113281 -14.128906 11.671875 -14.617188 11.171875 -15.046875 C 10.671875 -15.472656 10.023438 -15.6875 9.234375 -15.6875 C 8.441406 -15.6875 7.914062 -15.5 7.65625 -15.125 C 7.40625 -14.757812 7.28125 -14.382812 7.28125 -14 C 7.28125 -13.4375 7.53125 -13.007812 8.03125 -12.71875 C 8.539062 -12.425781 9.191406 -12.179688 9.984375 -11.984375 C 10.773438 -11.796875 11.613281 -11.582031 12.5 -11.34375 C 13.382812 -11.113281 14.222656 -10.800781 15.015625 -10.40625 C 15.816406 -10.007812 16.46875 -9.445312 16.96875 -8.71875 C 17.46875 -8 17.71875 -7.050781 17.71875 -5.875 C 17.71875 -4.375 17.28125 -3.171875 16.40625 -2.265625 C 15.539062 -1.367188 14.429688 -0.722656 13.078125 -0.328125 C 11.722656 0.0664062 10.296875 0.265625 8.796875 0.265625 C 8.171875 0.265625 7.414062 0.191406 6.53125 0.046875 C 5.65625 -0.0976562 4.78125 -0.335938 3.90625 -0.671875 C 3.039062 -1.015625 2.320312 -1.472656 1.75 -2.046875 C 1.175781 -2.628906 0.890625 -3.359375 0.890625 -4.234375 Z M 0.890625 -4.234375 "/></g></g></g><g clip-path="url(#b8fb541713)"><path fill="#d84012" d="M 24.710938 -0.0078125 C 38.105469 -0.0078125 48.960938 10.851562 48.960938 24.242188 C 48.960938 34.464844 42.636719 43.207031 33.6875 46.777344 L 33.332031 39.136719 L 33.332031 39.121094 C 33.351562 37.609375 33.992188 36.417969 35.40625 35.820312 L 35.589844 35.746094 L 35.597656 35.742188 L 35.609375 35.738281 L 35.628906 35.730469 C 36.671875 35.308594 37.519531 34.742188 38.097656 33.757812 C 38.820312 32.53125 38.960938 30.898438 38.960938 29.507812 C 38.960938 26.835938 38.171875 23.679688 36.816406 21.371094 C 35.851562 19.726562 34.328125 18.066406 32.273438 18.066406 C 30.222656 18.066406 28.699219 19.726562 27.734375 21.371094 C 26.378906 23.679688 25.589844 26.835938 25.589844 29.507812 C 25.589844 30.898438 25.730469 32.535156 26.453125 33.757812 C 27.035156 34.75 27.894531 35.316406 28.941406 35.742188 C 28.972656 35.75 29 35.765625 29.03125 35.777344 L 29.039062 35.777344 L 29.128906 35.816406 C 30.550781 36.414062 31.195312 37.589844 31.214844 39.121094 L 31.214844 39.136719 L 30.820312 47.71875 C 28.867188 48.226562 26.820312 48.496094 24.710938 48.496094 C 22.527344 48.496094 20.410156 48.203125 18.398438 47.664062 L 18.027344 39.628906 L 18.027344 39.609375 C 18.046875 38.0625 18.707031 36.839844 20.15625 36.226562 L 20.34375 36.152344 L 20.347656 36.152344 L 20.355469 36.148438 L 20.375 36.140625 C 21.398438 35.726562 22.234375 35.167969 22.800781 34.203125 C 23.515625 32.992188 23.652344 31.371094 23.652344 30 C 23.652344 29.867188 23.644531 29.730469 23.636719 29.597656 C 23.632812 29.523438 23.625 29.445312 23.617188 29.371094 L 23.605469 29.261719 L 23.625 29.183594 L 22.742188 18.925781 L 21.820312 18.929688 L 21.742188 29.769531 L 20.207031 29.921875 L 19.292969 17.667969 L 18.292969 17.726562 L 18.09375 30.070312 L 17.550781 30.09375 C 17.4375 30.097656 17.324219 30.101562 17.210938 30.101562 C 17.097656 30.101562 16.984375 30.097656 16.867188 30.09375 L 16.328125 30.070312 L 16.050781 17.726562 L 15.050781 17.667969 L 14.21875 29.921875 L 12.679688 29.769531 L 12.601562 18.929688 L 11.675781 18.929688 L 10.484375 29.1875 L 10.503906 29.261719 L 10.488281 29.371094 C 10.480469 29.445312 10.472656 29.523438 10.46875 29.597656 C 10.460938 29.734375 10.457031 29.867188 10.457031 30 C 10.457031 31.371094 10.59375 32.992188 11.304688 34.203125 C 11.878906 35.175781 12.722656 35.734375 13.753906 36.148438 C 13.777344 36.15625 13.800781 36.167969 13.824219 36.175781 L 13.832031 36.175781 L 13.941406 36.222656 C 15.394531 36.835938 16.058594 38.042969 16.082031 39.609375 L 16.082031 39.628906 L 15.75 46.789062 C 6.789062 43.226562 0.453125 34.476562 0.453125 24.246094 C 0.460938 10.847656 11.316406 -0.0078125 24.710938 -0.0078125 " fill-opacity="1" fill-rule="evenodd"/></g><g clip-path="url(#ddf64461f1)"><g clip-path="url(#a8aad0a533)"><path fill="#d84012" d="M 168.445312 36.894531 L 200.320312 36.894531 L 200.320312 48.246094 L 168.445312 48.246094 Z M 168.445312 36.894531 " fill-opacity="1" fill-rule="nonzero"/></g></g><g fill="#f2f5f6" fill-opacity="1"><g transform="translate(171.532243, 45.860681)"><g><path d="M 0.265625 -1.171875 C 0.265625 -1.523438 0.390625 -1.828125 0.640625 -2.078125 C 0.890625 -2.328125 1.195312 -2.453125 1.5625 -2.453125 C 1.914062 -2.453125 2.210938 -2.328125 2.453125 -2.078125 C 2.703125 -1.828125 2.828125 -1.523438 2.828125 -1.171875 C 2.828125 -0.816406 2.703125 -0.515625 2.453125 -0.265625 C 2.210938 -0.015625 1.914062 0.109375 1.5625 0.109375 C 1.207031 0.109375 0.898438 -0.015625 0.640625 -0.265625 C 0.390625 -0.523438 0.265625 -0.828125 0.265625 -1.171875 Z M 0.265625 -1.171875 "/></g></g></g><g fill="#f2f5f6" fill-opacity="1"><g transform="translate(174.779531, 45.860681)"><g><path d="M 2.34375 0 C 2.15625 0 1.9375 0.015625 1.6875 0.046875 C 1.445312 0.0859375 1.21875 0.109375 1 0.109375 C 0.789062 0.109375 0.613281 0.078125 0.46875 0.015625 C 0.332031 -0.046875 0.265625 -0.164062 0.265625 -0.34375 C 0.265625 -0.476562 0.296875 -0.578125 0.359375 -0.640625 C 0.421875 -0.710938 0.492188 -0.796875 0.578125 -0.890625 C 0.660156 -0.992188 0.734375 -1.15625 0.796875 -1.375 C 0.859375 -1.59375 0.890625 -1.914062 0.890625 -2.34375 C 0.890625 -2.894531 0.890625 -3.296875 0.890625 -3.546875 C 0.898438 -3.796875 0.90625 -3.976562 0.90625 -4.09375 C 0.90625 -4.207031 0.90625 -4.335938 0.90625 -4.484375 C 0.90625 -4.804688 0.851562 -5.03125 0.75 -5.15625 C 0.644531 -5.28125 0.539062 -5.378906 0.4375 -5.453125 C 0.34375 -5.523438 0.296875 -5.644531 0.296875 -5.8125 C 0.296875 -5.988281 0.351562 -6.109375 0.46875 -6.171875 C 0.59375 -6.242188 0.765625 -6.300781 0.984375 -6.34375 C 1.210938 -6.394531 1.484375 -6.472656 1.796875 -6.578125 C 2.179688 -6.722656 2.445312 -6.851562 2.59375 -6.96875 C 2.738281 -7.082031 2.847656 -7.175781 2.921875 -7.25 C 2.992188 -7.320312 3.109375 -7.359375 3.265625 -7.359375 C 3.484375 -7.359375 3.628906 -7.257812 3.703125 -7.0625 C 3.773438 -6.875 3.8125 -6.648438 3.8125 -6.390625 L 3.8125 -6.234375 C 3.8125 -6.066406 3.84375 -5.984375 3.90625 -5.984375 C 3.957031 -5.984375 4.050781 -6.050781 4.1875 -6.1875 C 4.320312 -6.332031 4.492188 -6.492188 4.703125 -6.671875 C 4.921875 -6.859375 5.175781 -7.019531 5.46875 -7.15625 C 5.757812 -7.289062 6.09375 -7.359375 6.46875 -7.359375 C 6.84375 -7.359375 7.148438 -7.289062 7.390625 -7.15625 C 7.640625 -7.019531 7.832031 -6.859375 7.96875 -6.671875 C 8.113281 -6.492188 8.226562 -6.332031 8.3125 -6.1875 C 8.394531 -6.050781 8.460938 -5.984375 8.515625 -5.984375 C 8.597656 -5.984375 8.703125 -6.050781 8.828125 -6.1875 C 8.960938 -6.320312 9.132812 -6.484375 9.34375 -6.671875 C 9.550781 -6.859375 9.800781 -7.019531 10.09375 -7.15625 C 10.394531 -7.289062 10.75 -7.359375 11.15625 -7.359375 C 11.726562 -7.359375 12.15625 -7.238281 12.4375 -7 C 12.726562 -6.757812 12.925781 -6.457031 13.03125 -6.09375 C 13.132812 -5.726562 13.1875 -5.359375 13.1875 -4.984375 L 13.1875 -2.34375 C 13.1875 -1.914062 13.21875 -1.59375 13.28125 -1.375 C 13.34375 -1.15625 13.410156 -0.992188 13.484375 -0.890625 C 13.566406 -0.796875 13.640625 -0.710938 13.703125 -0.640625 C 13.773438 -0.578125 13.8125 -0.476562 13.8125 -0.34375 C 13.8125 -0.164062 13.757812 -0.046875 13.65625 0.015625 C 13.550781 0.078125 13.414062 0.109375 13.25 0.109375 C 13.070312 0.109375 12.867188 0.0859375 12.640625 0.046875 C 12.421875 0.015625 12.210938 0 12.015625 0 C 11.816406 0 11.644531 0.00390625 11.5 0.015625 C 11.363281 0.0351562 11.21875 0.0625 11.0625 0.09375 C 10.820312 0.113281 10.625 0.0625 10.46875 -0.0625 C 10.320312 -0.195312 10.25 -0.390625 10.25 -0.640625 L 10.25 -3.609375 C 10.25 -4.191406 10.191406 -4.632812 10.078125 -4.9375 C 9.960938 -5.238281 9.75 -5.390625 9.4375 -5.390625 C 9.175781 -5.390625 8.957031 -5.273438 8.78125 -5.046875 C 8.601562 -4.828125 8.515625 -4.378906 8.515625 -3.703125 L 8.515625 -2.34375 C 8.515625 -1.914062 8.539062 -1.59375 8.59375 -1.375 C 8.65625 -1.15625 8.726562 -0.992188 8.8125 -0.890625 C 8.894531 -0.796875 8.96875 -0.710938 9.03125 -0.640625 C 9.09375 -0.578125 9.125 -0.476562 9.125 -0.34375 C 9.125 -0.164062 9.070312 -0.046875 8.96875 0.015625 C 8.863281 0.078125 8.726562 0.109375 8.5625 0.109375 C 8.394531 0.109375 8.195312 0.0859375 7.96875 0.046875 C 7.75 0.015625 7.535156 0 7.328125 0 C 7.128906 0 6.960938 0.00390625 6.828125 0.015625 C 6.691406 0.0351562 6.546875 0.0625 6.390625 0.09375 C 6.140625 0.113281 5.9375 0.0625 5.78125 -0.0625 C 5.632812 -0.195312 5.5625 -0.390625 5.5625 -0.640625 L 5.5625 -3.609375 C 5.5625 -4.191406 5.5 -4.632812 5.375 -4.9375 C 5.257812 -5.238281 5.046875 -5.390625 4.734375 -5.390625 C 4.453125 -5.390625 4.226562 -5.242188 4.0625 -4.953125 C 3.894531 -4.671875 3.8125 -4.085938 3.8125 -3.203125 L 3.8125 -2.34375 C 3.8125 -1.914062 3.835938 -1.59375 3.890625 -1.375 C 3.953125 -1.15625 4.023438 -0.992188 4.109375 -0.890625 C 4.203125 -0.796875 4.273438 -0.710938 4.328125 -0.640625 C 4.390625 -0.578125 4.421875 -0.476562 4.421875 -0.34375 C 4.421875 -0.164062 4.351562 -0.046875 4.21875 0.015625 C 4.082031 0.078125 3.910156 0.109375 3.703125 0.109375 C 3.472656 0.109375 3.234375 0.0859375 2.984375 0.046875 C 2.734375 0.015625 2.519531 0 2.34375 0 Z M 2.34375 0 "/></g></g></g><g fill="#f2f5f6" fill-opacity="1"><g transform="translate(189.002052, 45.860681)"><g><path d="M 4.375 0.109375 C 3.726562 0.109375 3.097656 -0.015625 2.484375 -0.265625 C 1.867188 -0.523438 1.359375 -0.925781 0.953125 -1.46875 C 0.554688 -2.007812 0.359375 -2.722656 0.359375 -3.609375 C 0.359375 -4.359375 0.519531 -5.015625 0.84375 -5.578125 C 1.175781 -6.140625 1.628906 -6.578125 2.203125 -6.890625 C 2.785156 -7.203125 3.460938 -7.359375 4.234375 -7.359375 C 4.972656 -7.359375 5.578125 -7.269531 6.046875 -7.09375 C 6.523438 -6.914062 6.894531 -6.679688 7.15625 -6.390625 C 7.414062 -6.109375 7.59375 -5.816406 7.6875 -5.515625 C 7.789062 -5.222656 7.84375 -4.96875 7.84375 -4.75 C 7.84375 -4.144531 7.65625 -3.648438 7.28125 -3.265625 C 6.90625 -2.890625 6.425781 -2.613281 5.84375 -2.4375 C 5.257812 -2.257812 4.664062 -2.171875 4.0625 -2.171875 C 3.894531 -2.171875 3.769531 -2.109375 3.6875 -1.984375 C 3.613281 -1.867188 3.59375 -1.734375 3.625 -1.578125 C 3.65625 -1.421875 3.75 -1.28125 3.90625 -1.15625 C 4.070312 -1.039062 4.304688 -0.984375 4.609375 -0.984375 C 5.046875 -0.984375 5.390625 -1.0625 5.640625 -1.21875 C 5.890625 -1.375 6.085938 -1.550781 6.234375 -1.75 C 6.390625 -1.957031 6.535156 -2.140625 6.671875 -2.296875 C 6.816406 -2.460938 7.003906 -2.546875 7.234375 -2.546875 C 7.441406 -2.546875 7.597656 -2.476562 7.703125 -2.34375 C 7.804688 -2.21875 7.859375 -2.078125 7.859375 -1.921875 C 7.859375 -1.515625 7.695312 -1.160156 7.375 -0.859375 C 7.050781 -0.554688 6.625 -0.316406 6.09375 -0.140625 C 5.5625 0.0234375 4.988281 0.109375 4.375 0.109375 Z M 4.234375 -6.4375 C 3.972656 -6.4375 3.765625 -6.285156 3.609375 -5.984375 C 3.460938 -5.679688 3.390625 -5.273438 3.390625 -4.765625 C 3.390625 -4.265625 3.460938 -3.863281 3.609375 -3.5625 C 3.765625 -3.257812 3.972656 -3.109375 4.234375 -3.109375 C 4.484375 -3.109375 4.679688 -3.257812 4.828125 -3.5625 C 4.984375 -3.863281 5.0625 -4.265625 5.0625 -4.765625 C 5.0625 -5.273438 4.984375 -5.679688 4.828125 -5.984375 C 4.679688 -6.285156 4.484375 -6.4375 4.234375 -6.4375 Z M 4.234375 -6.4375 "/></g></g></g></svg>